# xmcd
#
# Track frame offsets: 
#        150
#        10432
#        30227
#        43790
#        57364
#        72896
#
# Disc length: 1172 seconds
#
# Revision: 0
# Processed by: cddbd v1.5.2PL0 Copyright (c) Steve Scherf et al.
# Submitted via: ExactAudioCopy v0.99pb4
#
DISCID=48049206
DTITLE=BJ Hegen And The Greyhound Bluesband - Make Room For The Blues
DYEAR=2002
DGENRE=Blues
TTITLE0=Highway 34
TTITLE1=Tom Cat Blues
TTITLE2=When I Came In
TTITLE3=No 12 and 10 Train
TTITLE4=Hold Out
TTITLE5=Won't Do That No More
EXTD=
EXTT0=
EXTT1=
EXTT2=
EXTT3=
EXTT4=
EXTT5=
PLAYORDER=
